<?xml version="1.0" encoding="UTF-8" standalone="no"?>
<!DOCTYPE svg PUBLIC "-//W3C//DTD SVG 1.1//EN" "http://www.w3.org/Graphics/SVG/1.1/DTD/svg11.dtd">
<svg width="100%" height="100%" viewBox="0 0 128 128" version="1.1" xmlns="http://www.w3.org/2000/svg" xmlns:xlink="http://www.w3.org/1999/xlink" xml:space="preserve" xmlns:serif="http://www.serif.com/" style="fill-rule:evenodd;clip-rule:evenodd;stroke-linecap:round;stroke-linejoin:round;stroke-miterlimit:1.5;">
    <g transform="matrix(2.03321,0,0,1.95849,-11.1413,-126.055)">
        <ellipse cx="36.957" cy="97.041" rx="29.821" ry="30.959" style="fill:rgb(21,21,21);"/>
    </g>
    <g transform="matrix(1.95593,0,0,1.88596,-6.17961,-111.702)">
        <path d="M35.88,64C51.4,64 64,77.067 64,93.163C64,109.258 51.4,122.326 35.88,122.326C20.361,122.326 7.761,109.258 7.761,93.163C7.761,77.067 20.361,64 35.88,64ZM35.88,66.463C50.089,66.463 61.625,78.427 61.625,93.163C61.625,107.899 50.089,119.862 35.88,119.862C21.672,119.862 10.136,107.899 10.136,93.163C10.136,78.427 21.672,66.463 35.88,66.463Z" style="fill:white;stroke:white;stroke-width:0.52px;"/>
    </g>
    <g transform="matrix(1,0,0,1,16.1887,-15.7454)">
        <g transform="matrix(62.5,0,0,62.5,22.3007,100.352)">
            <path d="M0.05,0.012L0.093,-0.196L0.01,-0.196L0.01,-0.269L0.107,-0.269L0.144,-0.446L0.01,-0.446L0.01,-0.519L0.158,-0.519L0.201,-0.728L0.274,-0.728L0.231,-0.519L0.385,-0.519L0.428,-0.728L0.501,-0.728L0.459,-0.519L0.543,-0.519L0.543,-0.446L0.444,-0.446L0.408,-0.269L0.543,-0.269L0.543,-0.196L0.393,-0.196L0.351,0.012L0.277,0.012L0.319,-0.196L0.166,-0.196L0.124,0.012L0.05,0.012ZM0.181,-0.269L0.334,-0.269L0.371,-0.446L0.217,-0.446L0.181,-0.269Z" style="fill:white;fill-rule:nonzero;"/>
        </g>
        <g transform="matrix(62.5,0,0,62.5,57.0602,100.352)">
            <path d="M0.113,-0.178L0.086,-0.557L0.086,-0.716L0.195,-0.716L0.195,-0.557L0.169,-0.178L0.113,-0.178ZM0.09,-0L0.09,-0.1L0.191,-0.1L0.191,-0L0.09,-0Z" style="fill:white;fill-rule:nonzero;"/>
        </g>
    </g>
</svg>
